<svg xmlns="http://www.w3.org/2000/svg" width="227" height="48" viewBox="0 0 227 48" fill="none"><path d="M8.0464 45.4356C5.57741 44.0238 3.53372 41.946 2.1375 39.4282C0.735166 36.8115 0 33.8751 0 30.8904C0 27.9058 0.735166 24.9694 2.1375 22.3527C3.5415 19.8491 5.58399 17.7835 8.0464 16.3768C10.6162 14.9031 13.5201 14.1492 16.4653 14.1911C21.2695 14.1911 25.2447 15.9104 28.391 19.349L22.405 24.833C20.7403 22.9989 18.7604 22.0818 16.4653 22.0818C14.0401 22.0818 12.0627 22.898 10.5333 24.5305C9.00381 26.163 8.23823 28.2848 8.23652 30.8957C8.23652 33.5084 9.0021 35.6196 10.5333 37.2293C12.0645 38.839 14.0418 39.6447 16.4653 39.6465C18.8888 39.6465 20.8585 38.8407 22.3742 37.2293C23.89 35.6178 24.6444 33.5066 24.6376 30.8957H32.7379C32.776 33.8798 32.0392 36.8207 30.603 39.4176C29.2201 41.9208 27.2037 43.996 24.766 45.4251C22.2431 46.8996 19.3804 47.6552 16.4756 47.6134C13.5275 47.6609 10.6195 46.9095 8.0464 45.4356Z" fill="#FEFEFE"></path><path d="M40.8323 45.4344C38.373 44.0297 36.3419 41.9549 34.9645 39.4401C33.5835 36.8222 32.8604 33.8935 32.8604 30.9182C32.8604 27.9428 33.5835 25.0142 34.9645 22.3962C36.3408 19.8772 38.3719 17.7978 40.8323 16.3888C43.4173 14.9544 46.311 14.2031 49.2512 14.2031C52.1915 14.2031 55.0852 14.9544 57.6702 16.3888C60.1306 17.7978 62.1617 19.8772 63.5379 22.3962C64.9206 25.0137 65.6446 27.9425 65.6446 30.9182C65.6446 33.8939 64.9206 36.8227 63.5379 39.4401C62.1624 41.9597 60.1312 44.0393 57.6702 45.4476C55.0857 46.8836 52.1918 47.6358 49.2512 47.6358C46.3107 47.6358 43.4168 46.8836 40.8323 45.4476V45.4344ZM55.1524 37.1755C56.6614 35.5623 57.4158 33.4721 57.4158 30.905C57.4158 28.3379 56.6614 26.2337 55.1524 24.5925C53.6418 22.9617 51.6722 22.1455 49.2435 22.1437C46.8149 22.142 44.8453 22.9582 43.3346 24.5925C41.824 26.225 41.0696 28.3291 41.0713 30.905C41.073 33.4809 41.8274 35.571 43.3346 37.1755C44.8435 38.7852 46.8132 39.59 49.2435 39.59C51.6739 39.59 53.6435 38.7852 55.1524 37.1755Z" fill="#FEFEFE"></path><path d="M71.5351 44.0939C69.3086 41.7425 68.1953 38.4345 68.1953 34.17V14.5801H76.3522V32.1448C76.3522 37.1492 78.4151 39.6523 82.5411 39.6541C84.6221 39.6541 86.2269 38.9684 87.3556 37.5972C88.4843 36.226 89.0478 34.4085 89.046 32.1448V14.5801H97.2106V47.2291H89.0435V44.1728C88.0969 45.2449 86.9324 46.0915 85.6317 46.6531C84.0707 47.3353 82.3858 47.6697 80.6888 47.6342C76.818 47.6254 73.7668 46.4453 71.5351 44.0939Z" fill="#FEFEFE"></path><path d="M107.826 45.5304C105.407 44.1654 103.425 42.114 102.117 39.6229C100.756 37.0734 100.076 34.167 100.078 30.9037C100.079 27.6405 100.759 24.735 102.117 22.1871C103.425 19.6959 105.407 17.6438 107.826 16.277C110.357 14.8625 113.202 14.143 116.086 14.1886C117.861 14.1712 119.625 14.4922 121.285 15.1355C122.734 15.6733 124.05 16.5309 125.139 17.6474V1.58456L133.301 0.671875V47.2269H125.144V44.0943C124.037 45.1962 122.727 46.0617 121.291 46.6404C119.637 47.3142 117.87 47.6475 116.091 47.6215C113.206 47.6679 110.358 46.9474 107.826 45.5304ZM122.655 37.3031C124.186 35.6495 124.952 33.5164 124.952 30.9037C124.952 28.2507 124.186 26.1071 122.655 24.4728C121.124 22.8386 119.126 22.0223 116.661 22.0241C114.195 22.0241 112.164 22.8508 110.57 24.5044C108.975 26.1579 108.178 28.291 108.178 30.9037C108.178 33.5164 108.975 35.6495 110.57 37.3031C112.164 38.9566 114.195 39.7843 116.661 39.786C119.126 39.786 121.124 38.9584 122.655 37.3031Z" fill="#FEFEFE"></path><path d="M144.058 45.4697C141.642 44.062 139.646 42.0069 138.285 39.5253C136.882 37.0021 136.18 34.129 136.178 30.9061C136.176 27.6832 136.879 24.8101 138.285 22.2868C139.645 19.8054 141.641 17.751 144.058 16.3451C146.554 14.8946 149.383 14.1511 152.253 14.191C154.055 14.1696 155.843 14.5128 157.514 15.201C159.107 15.8778 160.329 16.6941 161.18 17.6497V14.5829H169.402V47.2319H161.18V44.0967C160.374 45.0541 159.175 45.8817 157.584 46.5796C155.896 47.2961 154.085 47.654 152.258 47.6317C149.385 47.6701 146.555 46.9238 144.058 45.4697ZM158.758 37.337C160.33 35.7027 161.117 33.5582 161.119 30.9034C161.119 28.2048 160.342 26.0498 158.789 24.4384C157.235 22.8269 155.248 22.0221 152.826 22.0238C150.359 22.0238 148.319 22.8287 146.704 24.4384C145.089 26.0481 144.28 28.2031 144.278 30.9034C144.278 33.56 145.097 35.7045 146.734 37.337C148.372 38.9695 150.402 39.7857 152.826 39.7857C155.208 39.7875 157.186 38.9712 158.758 37.337Z" fill="#FEFEFE"></path><path d="M180.316 45.4355C177.846 44.024 175.803 41.9462 174.407 39.4281C173.004 36.8115 172.269 33.875 172.269 30.8904C172.269 27.9057 173.004 24.9693 174.407 22.3527C175.811 19.8489 177.853 17.7832 180.316 16.3768C182.886 14.9036 185.789 14.1498 188.735 14.1911C193.539 14.1911 197.515 15.9104 200.663 19.3489L194.667 24.833C193.01 22.9988 191.033 22.0818 188.735 22.0818C186.313 22.0818 184.335 22.898 182.803 24.5305C181.27 26.163 180.505 28.2847 180.508 30.8957C180.508 33.5083 181.273 35.6195 182.803 37.2292C184.332 38.8389 186.309 39.6447 188.735 39.6464C191.16 39.6464 193.129 38.8407 194.643 37.2292C196.158 35.6178 196.912 33.5066 196.907 30.8957H205.007C205.045 33.8801 204.308 36.8212 202.87 39.4176C201.488 41.9206 199.472 43.9959 197.035 45.425C194.512 46.8998 191.648 47.6555 188.742 47.6134C185.795 47.6597 182.888 46.9085 180.316 45.4355Z" fill="#FEFEFE"></path><path d="M209.439 20.6101V18.5059H216.632V20.6101H214.289V27.0094H211.784V20.6101H209.439Z" fill="#FEFEFE"></path><path d="M216.532 27.0068V18.5059H219.746L221.763 24.2924L223.723 18.5059H226.996V27.0068H224.558V21.5543L222.69 27.0041H220.836L218.968 21.5543V27.0041L216.532 27.0068Z" fill="#FEFEFE"></path></svg>