<svg xmlns="http://www.w3.org/2000/svg" width="153" height="33" viewBox="0 0 153 33" fill="none"><path d="M44.9645 11.4551C43.8288 8.70125 42.6703 6.31203 40.1519 3.98358C38.3248 2.29326 36.2129 1.20691 33.6679 1.16132C31.1268 1.11574 29.1706 2.28946 28.4602 2.71109C28.4602 2.71109 26.599 3.81264 24.9201 5.73086C24.8137 5.85241 24.7074 5.97776 24.7074 5.97776C24.4263 6.30823 24.1946 6.60451 24.0123 6.84761C23.754 6.91598 23.697 6.67668 23.5944 6.54753C22.3295 4.97877 20.9089 3.58474 19.1996 2.49838C15.7468 0.302873 11.9863 0.352253 8.62472 2.66931C6.82805 3.90761 5.4682 5.54854 4.33626 7.39079C3.78549 8.28342 3.29169 9.20645 2.87766 10.1675C1.40006 13.6089 0.473236 17.1756 0.499825 20.9437C0.515019 23.3823 0.997422 25.7183 2.26611 27.8341C3.58797 30.041 5.44541 31.5566 8.06255 31.906C10.3188 32.2099 12.3092 31.4654 14.1135 30.1511C15.3556 29.2471 16.328 28.081 17.27 26.8883C18.5881 25.2245 19.7086 23.4279 20.7874 21.6046C21.7066 20.0434 22.5992 18.4671 23.5109 16.9021C23.583 16.7768 23.5868 16.5223 23.8565 16.602C24.5668 17.8631 25.2619 19.1318 25.9875 20.3815C27.4916 22.9758 29.0262 25.5512 30.952 27.8758C32.3043 29.5054 33.8275 30.8956 35.8596 31.6135C38.4312 32.5214 40.828 32.1681 42.9817 30.4702C45.2304 28.6963 45.9863 26.2615 46.3206 25.1486C46.4459 24.7307 46.5903 24.1762 46.6966 23.4734C47.5627 17.9239 45.0671 11.7248 44.9569 11.4551H44.9645ZM26.4129 11.3488C26.6978 10.9765 26.9409 10.6689 27.1232 10.4409C27.5258 9.93955 27.8677 9.51792 28.3463 9.00513C28.6995 8.62908 28.973 8.3328 29.3795 7.98715C29.596 7.80102 30.0708 7.40218 30.7013 7.03753C31.3471 6.66528 32.3878 6.06513 33.8085 6.08792C34.6441 6.10311 35.2329 6.32722 35.9546 6.60451C36.0723 6.65009 36.456 6.84761 36.9346 7.20466C38.1805 8.13908 39.0124 9.46095 39.4378 10.2358C39.6999 10.8132 39.9924 11.3754 40.2241 11.9641C41.5611 15.3637 42.0777 18.8773 41.6561 22.5162C41.5383 23.5494 41.2952 24.5446 40.7862 25.46C40.0227 26.8313 38.7009 27.2833 37.2727 26.6565C36.1559 26.1665 35.3013 25.3461 34.4998 24.4648C33.6451 23.5266 33.0564 22.4061 32.3537 21.3653C30.2949 18.3265 28.2209 15.2992 26.4433 12.0819C26.3065 11.8312 26.2533 11.6109 26.4053 11.364M13.2284 23.8229C12.3244 25.0688 11.2532 26.1627 9.80604 26.8009C8.46138 27.3972 7.1927 27.0022 6.41402 25.7525C5.76448 24.7041 5.54037 23.5266 5.41502 22.3263C5.33906 21.6236 5.30107 20.9171 5.30867 20.2106C5.34285 17.0768 5.95061 14.0647 7.27247 11.212C8.00937 9.62048 9.01596 8.20746 10.4328 7.16288C11.6521 6.26265 13.0499 5.98916 14.5465 6.369C16.3204 6.82102 17.6574 7.93776 18.8691 9.23304C19.5225 9.92815 20.0923 10.6916 20.6544 11.4665C20.833 11.7096 20.8367 11.9109 20.6924 12.173C19.1312 14.9991 17.346 17.6846 15.5379 20.3549C14.7592 21.5058 14.0451 22.7024 13.2322 23.8229H13.2284Z" fill="#CDD1D8"></path><path d="M58.1592 1.875H63.7809L73.353 19.196L82.9251 1.875H88.4329V30.4014H83.8367V8.52229L75.4421 23.6401H71.1879L62.7553 8.52229V30.4014H58.1592V1.875Z" fill="#CDD1D8"></path><path d="M103.324 30.8524C101.349 30.8904 99.4119 30.3966 97.7026 29.447C96.1073 28.5353 94.8158 27.1679 93.9421 25.5346C93.0305 23.7493 92.5367 21.7741 92.5747 19.7989C92.5367 17.7857 92.9925 15.8105 93.9042 13.9873C94.7398 12.3539 96.0313 10.9865 97.5887 10.0369C99.222 9.04926 101.083 8.55546 102.982 8.59345C106.705 8.44151 110.124 10.6066 111.567 14.0252C112.403 15.9245 112.782 18.0136 112.744 20.1028V21.3563H97.1328C97.3228 22.9136 98.0825 24.395 99.26 25.4586C100.438 26.4842 101.957 27.016 103.514 26.94C104.73 26.978 105.945 26.7501 107.047 26.3322C108.072 25.9144 109.022 25.2687 109.82 24.471L112.251 27.4718C109.82 29.7508 106.629 30.9663 103.324 30.8524ZM106.667 13.9873C105.641 12.9997 104.274 12.4299 102.869 12.5059C101.463 12.4679 100.058 12.9997 99.0701 14.0252C98.0065 15.1268 97.3228 16.5702 97.1328 18.0896H108.338C108.3 16.5322 107.693 15.0888 106.667 13.9873Z" fill="#CDD1D8"></path><path d="M118.33 12.8845H114.076V9.124H118.33V2.89453H122.774V9.124H129.194V12.8845H122.774V22.4186C122.774 24.0139 123.04 25.1535 123.572 25.7992C124.104 26.4829 125.053 26.8248 126.345 26.8248C126.838 26.8248 127.332 26.8248 127.826 26.7488C128.244 26.7108 128.7 26.6349 129.156 26.5589V30.2814C128.586 30.4333 128.016 30.5853 127.446 30.6612C126.801 30.7752 126.117 30.8132 125.471 30.8132C120.685 30.8132 118.292 28.1922 118.292 22.9504L118.33 12.8845Z" fill="#CDD1D8"></path><path d="M152.321 30.3592H147.953V27.3964C147.193 28.498 146.168 29.3716 144.99 29.9794C143.737 30.5872 142.331 30.891 140.926 30.891C139.179 30.929 137.431 30.4352 135.95 29.4476C134.468 28.46 133.291 27.0926 132.531 25.4972C131.658 23.7119 131.24 21.7368 131.278 19.7616C131.24 17.7864 131.658 15.8112 132.531 13.9879C133.329 12.3926 134.506 11.0251 136.026 10.0755C137.545 9.12588 139.33 8.63208 141.154 8.63208C142.521 8.5941 143.851 8.89798 145.066 9.46774C146.206 9.99953 147.193 10.8352 147.953 11.8228V9.0879H152.321V30.3592ZM147.877 16.5709C147.421 15.3933 146.662 14.4057 145.636 13.722C144.572 13.0003 143.357 12.6584 142.065 12.6584C140.356 12.5825 138.685 13.2662 137.545 14.5577C136.406 15.8491 135.874 17.5585 135.874 19.7236C135.874 21.8887 136.406 23.636 137.507 24.9275C138.609 26.2189 140.242 26.9026 141.913 26.8267C143.205 26.8267 144.496 26.4468 145.56 25.7251C146.624 25.0414 147.421 24.0538 147.877 22.8763V16.5709Z" fill="#CDD1D8"></path></svg>