<svg xmlns="http://www.w3.org/2000/svg" width="154" height="39" viewBox="0 0 154 39" fill="none"><g clip-path="url(#clip0_4410_5413)"><path d="M13.5607 14.4312V20.8792C13.1238 20.8456 12.7247 20.8015 12.3236 20.7889C9.27391 20.6902 6.77662 22.9816 6.52668 26.1048C6.30195 28.8962 8.64381 31.6539 11.4603 31.9185C14.5982 32.2147 17.2404 30.1647 17.6437 27.1025C17.7172 26.5501 17.7277 25.9872 17.7277 25.4285C17.734 17.4872 17.734 9.54376 17.734 1.60243C17.734 1.26428 17.734 0.924026 17.734 0.457754C19.8028 0.457754 21.754 0.43255 23.701 0.499761C23.8754 0.506062 24.1484 1.09625 24.1778 1.4302C24.4803 5.02386 26.2718 7.53795 29.6324 8.81705C30.7182 9.22871 31.9343 9.29172 33.2722 9.54796C33.2722 11.3836 33.3037 13.36 33.226 15.3323C33.2176 15.5465 32.5854 15.8825 32.2242 15.9119C29.5105 16.1199 27.1204 15.3239 25.1104 13.4609C24.8667 13.2361 24.6189 13.0156 24.1736 12.6123C24.1736 13.3054 24.1736 13.7465 24.1736 14.1855C24.1736 18.2433 24.1799 22.3032 24.1715 26.3611C24.1568 32.6032 19.4668 37.8414 13.3989 38.4085C7.06017 39.0008 1.40609 34.7918 0.217308 28.5958C-1.22982 21.0619 4.95144 13.9439 12.6302 14.3094C12.9348 14.3241 13.2351 14.3871 13.567 14.4312H13.5607Z" fill="#CDD1D8"></path><path d="M139.166 38.4072H132.771V11.8633H139.126V24.0557C140.67 22.5728 142.102 21.4009 143.278 20.0104C144.618 18.4289 146.137 17.7757 148.199 18.0046C149.684 18.1706 151.205 18.0361 152.791 18.0361C150.138 20.5796 147.54 23.0706 144.906 25.5973C148.073 30.0731 150.97 34.1645 153.998 38.445C151.585 38.445 149.367 38.466 147.151 38.4156C146.901 38.4093 146.599 38.0501 146.423 37.7876C144.749 35.2882 143.098 32.7741 141.434 30.2663C141.302 30.0668 141.142 29.8883 141.023 29.7328C139.504 30.6654 138.96 31.9634 139.134 33.7193C139.286 35.2357 139.166 36.7815 139.166 38.4072Z" fill="#CDD1D8"></path><path d="M68.4153 38.3763V11.8555H74.7163V23.9764C75.1531 23.6215 75.3947 23.4535 75.6047 23.2497C77.1883 21.7186 78.7426 20.1539 80.3661 18.6626C80.7316 18.3266 81.3239 18.0808 81.8196 18.0661C84.006 18.0031 86.1966 18.0388 88.696 18.0388C85.8942 20.765 83.3024 23.2854 80.6854 25.8331C83.6972 30.0863 86.5768 34.1546 89.6181 38.4519C87.9042 38.4519 86.4067 38.307 84.9532 38.4876C83.065 38.7228 81.9729 38.0255 81.0487 36.3873C79.7507 34.0874 78.1671 31.9472 76.6654 29.6788C75.5144 30.6387 74.5545 31.4914 74.7247 33.1696C74.8948 34.8624 74.7625 36.5847 74.7625 38.3742H68.4174L68.4153 38.3763Z" fill="#CDD1D8"></path><path d="M120.211 38.4506C114.246 38.4569 109.401 33.6303 109.386 27.6633C109.371 21.7425 114.288 16.813 120.192 16.8341C126.163 16.8551 130.99 21.6774 131.007 27.6444C131.026 33.6009 126.187 38.4443 120.211 38.4506ZM120.201 32.9898C123.154 32.994 125.525 30.6374 125.542 27.6801C125.559 24.767 123.168 22.3327 120.253 22.2949C117.369 22.2571 114.855 24.7145 114.847 27.5793C114.836 30.587 117.212 32.9856 120.201 32.9898Z" fill="#CDD1D8"></path><path d="M58.242 11.922C57.677 13.785 57.152 15.5787 56.5597 17.3514C56.5072 17.511 56.0262 17.5929 55.7405 17.5971C54.3144 17.6223 52.8883 17.6076 51.3382 17.6076V38.3798H44.8945V17.6223H38.6775V11.9199H58.2378L58.242 11.922Z" fill="#CDD1D8"></path><path d="M105.105 38.3987H98.6905V17.6202H92.4399V11.9199H112C111.446 13.764 110.94 15.5283 110.358 17.2673C110.295 17.4585 109.791 17.5887 109.488 17.595C108.066 17.6286 106.642 17.6097 105.103 17.6097V38.3966L105.105 38.3987Z" fill="#CDD1D8"></path><path d="M59.5049 38.3765V20.4355H65.8374V38.3765H59.5049Z" fill="#CDD1D8"></path><path d="M65.8964 15.2838C65.8544 17.0544 64.3884 18.4679 62.6451 18.4175C60.8872 18.3671 59.4463 16.9032 59.461 15.1788C59.4779 13.4208 61.0426 11.9233 62.8027 11.9842C64.5501 12.0451 65.9385 13.5259 65.8964 15.2838Z" fill="#CDD1D8"></path></g><defs><clipPath id="clip0_4410_5413"><rect width="154" height="38.0789" fill="white" transform="translate(0 0.455078)"></rect></clipPath></defs></svg>