<svg xmlns="http://www.w3.org/2000/svg" width="329" height="130" viewBox="0 0 329 130" fill="none"><path d="M0 12.1094C0 5.48196 5.37258 0.109375 12 0.109375H317C323.627 0.109375 329 5.48196 329 12.1094V117.971C329 124.599 323.627 129.971 317 129.971H12C5.37258 129.971 0 124.599 0 117.971V12.1094Z" fill="#F3F3F3"></path><path d="M79.4867 82.1974C77.4963 81.0593 75.8488 79.3842 74.7232 77.3544C73.5927 75.245 73 72.8777 73 70.4716C73 68.0655 73.5927 65.6982 74.7232 63.5888C75.855 61.5705 77.5016 59.9052 79.4867 58.7712C81.5584 57.5831 83.8995 56.9754 86.2738 57.0091C90.1468 57.0091 93.3515 58.3952 95.8879 61.1673L91.0622 65.5883C89.7201 64.1097 88.124 63.3704 86.2738 63.3704C84.3187 63.3704 82.7246 64.0284 81.4916 65.3445C80.2586 66.6605 79.6414 68.371 79.64 70.4758C79.64 72.5821 80.2572 74.2841 81.4916 75.5818C82.726 76.8795 84.32 77.529 86.2738 77.5304C88.2275 77.5304 89.8154 76.8809 91.0374 75.5818C92.2593 74.2827 92.8675 72.5807 92.862 70.4758H99.3922C99.4229 72.8815 98.829 75.2524 97.6711 77.3459C96.5563 79.3639 94.9307 81.0369 92.9656 82.189C90.9316 83.3776 88.6238 83.9868 86.2821 83.9531C83.9054 83.9914 81.5611 83.3857 79.4867 82.1974Z" fill="#05183C"></path><path d="M105.918 82.1972C103.935 81.0648 102.298 79.3921 101.187 77.3648C100.074 75.2543 99.491 72.8933 99.491 70.4946C99.491 68.096 100.074 65.735 101.187 63.6245C102.297 61.5938 103.934 59.9174 105.918 58.7815C108.002 57.6252 110.334 57.0195 112.705 57.0195C115.075 57.0195 117.408 57.6252 119.492 58.7815C121.475 59.9174 123.113 61.5938 124.222 63.6245C125.337 65.7346 125.921 68.0957 125.921 70.4946C125.921 72.8935 125.337 75.2547 124.222 77.3648C123.113 79.396 121.476 81.0725 119.492 82.2078C117.408 83.3654 115.075 83.9718 112.705 83.9718C110.334 83.9718 108.001 83.3654 105.918 82.2078V82.1972ZM117.462 75.5391C118.679 74.2386 119.287 72.5536 119.287 70.484C119.287 68.4145 118.679 66.7182 117.462 65.3951C116.244 64.0804 114.656 63.4224 112.699 63.421C110.741 63.4196 109.153 64.0776 107.935 65.3951C106.717 66.7111 106.109 68.4075 106.11 70.484C106.112 72.5606 106.72 74.2457 107.935 75.5391C109.151 76.8368 110.739 77.4856 112.699 77.4856C114.658 77.4856 116.246 76.8368 117.462 75.5391Z" fill="#05183C"></path><path d="M130.669 81.1134C128.874 79.2177 127.977 76.551 127.977 73.1131V57.3203H134.553V71.4804C134.553 75.5148 136.216 77.5327 139.542 77.5341C141.22 77.5341 142.513 76.9814 143.423 75.876C144.333 74.7705 144.787 73.3053 144.786 71.4804V57.3203H151.368V83.6409H144.784V81.177C144.021 82.0413 143.082 82.7238 142.033 83.1765C140.775 83.7265 139.417 83.9961 138.049 83.9674C134.928 83.9604 132.468 83.009 130.669 81.1134Z" fill="#05183C"></path><path d="M159.926 82.2729C157.976 81.1724 156.378 79.5187 155.324 77.5105C154.226 75.4551 153.678 73.112 153.679 70.4813C153.681 67.8506 154.229 65.5082 155.324 63.4543C156.378 61.4459 157.976 59.7916 159.926 58.6897C161.966 57.5494 164.26 56.9694 166.584 57.0061C168.016 56.9921 169.437 57.2509 170.776 57.7695C171.944 58.2031 173.005 58.8944 173.883 59.7945V46.8452L180.463 46.1094V83.6405H173.887V81.1151C172.995 82.0034 171.939 82.7012 170.781 83.1677C169.448 83.7109 168.023 83.9796 166.589 83.9586C164.263 83.996 161.967 83.4152 159.926 82.2729ZM171.88 75.6403C173.115 74.3072 173.732 72.5876 173.732 70.4813C173.732 68.3425 173.115 66.6144 171.88 65.2969C170.646 63.9794 169.035 63.3214 167.048 63.3228C165.06 63.3228 163.423 63.9893 162.138 65.3224C160.852 66.6554 160.21 68.375 160.21 70.4813C160.21 72.5876 160.852 74.3072 162.138 75.6403C163.423 76.9733 165.06 77.6405 167.048 77.6419C169.035 77.6419 170.646 76.9747 171.88 75.6403Z" fill="#05183C"></path><path d="M189.134 82.2249C187.187 81.0901 185.578 79.4334 184.481 77.4328C183.35 75.3986 182.784 73.0824 182.782 70.4842C182.781 67.886 183.347 65.5698 184.481 63.5357C185.577 61.5352 187.186 59.8791 189.134 58.7457C191.147 57.5763 193.427 56.9769 195.741 57.009C197.194 56.9918 198.635 57.2685 199.983 57.8233C201.267 58.3689 202.252 59.027 202.938 59.7974V57.325H209.566V83.6456H202.938V81.118C202.288 81.8899 201.322 82.5571 200.039 83.1197C198.679 83.6973 197.218 83.9858 195.745 83.9679C193.43 83.9989 191.148 83.3972 189.134 82.2249ZM200.985 75.6686C202.253 74.3511 202.887 72.6223 202.889 70.4821C202.889 68.3066 202.263 66.5692 201.01 65.2701C199.758 63.971 198.156 63.3222 196.203 63.3236C194.215 63.3236 192.57 63.9725 191.268 65.2701C189.966 66.5678 189.314 68.3051 189.313 70.4821C189.313 72.6237 189.973 74.3525 191.293 75.6686C192.613 76.9847 194.249 77.6427 196.203 77.6427C198.124 77.6441 199.718 76.9861 200.985 75.6686Z" fill="#05183C"></path><path d="M218.365 82.1974C216.374 81.0595 214.726 79.3844 213.601 77.3544C212.471 75.2449 211.878 72.8777 211.878 70.4716C211.878 68.0654 212.471 65.6982 213.601 63.5887C214.733 61.5703 216.379 59.905 218.365 58.7712C220.437 57.5836 222.777 56.9758 225.152 57.0091C229.025 57.0091 232.23 58.3951 234.768 61.1672L229.934 65.5883C228.599 64.1096 227.005 63.3703 225.152 63.3703C223.199 63.3703 221.605 64.0284 220.37 65.3444C219.134 66.6605 218.517 68.3709 218.52 70.4758C218.52 72.5821 219.137 74.2841 220.37 75.5817C221.603 76.8794 223.197 77.529 225.152 77.5304C227.107 77.5304 228.695 76.8808 229.915 75.5817C231.136 74.2826 231.744 72.5807 231.74 70.4758H238.27C238.301 72.8817 237.706 75.2528 236.547 77.3459C235.433 79.3638 233.808 81.0368 231.843 82.1889C229.809 83.3779 227.5 83.987 225.158 83.9531C222.782 83.9905 220.439 83.3848 218.365 82.1974Z" fill="#05183C"></path><path d="M241.843 62.1807V60.4844H247.642V62.1807H245.753V67.3396H243.734V62.1807H241.843Z" fill="#05183C"></path><path d="M247.561 67.3375V60.4844H250.152L251.778 65.1493L253.358 60.4844H255.997V67.3375H254.032V62.9419L252.526 67.3354H251.031L249.525 62.9419V67.3354L247.561 67.3375Z" fill="#05183C"></path></svg>