<svg xmlns="http://www.w3.org/2000/svg" width="164" height="39" viewBox="0 0 164 39" fill="none"><g clip-path="url(#clip0_4410_5431)"><path d="M13.9396 38.1634C14.026 37.9131 14.1942 37.7188 14.32 37.5083C14.6345 36.9807 14.9464 36.4488 15.2036 35.8956C15.747 34.7266 16.2425 33.5417 16.5296 32.2679C16.6956 31.5311 16.9083 30.796 17.1261 30.0673C17.2806 29.5504 17.429 29.0318 17.5929 28.4716C17.7585 28.6835 17.892 28.876 18.0473 29.0493C18.7803 29.867 19.735 30.3013 20.7799 30.5204C22.7554 30.9342 24.6044 30.5097 26.3339 29.5324C28.2967 28.4229 29.6929 26.7721 30.6817 24.7734C31.9628 22.1855 32.3728 19.4478 32.0146 16.5852C31.8122 14.9661 31.3561 13.4359 30.4926 12.044C29.2825 10.0941 27.5384 8.80102 25.3741 8.1258C21.8278 7.0197 18.2553 6.98632 14.7594 8.30038C11.0693 9.68761 8.68036 12.338 7.65941 16.1612C6.92514 18.9104 7.20413 21.5582 8.6273 24.0502C9.22292 25.093 9.98372 25.9873 11.0564 26.5757C11.1313 26.6167 11.2105 26.6493 11.2854 26.6899C11.4856 26.7977 11.6375 26.7314 11.768 26.565C11.8682 26.4374 11.9135 26.2873 11.946 26.1345C12.08 25.5076 12.1981 24.8774 12.3448 24.2535C12.4 24.019 12.3401 23.8359 12.216 23.6527C10.5751 21.2296 10.3153 18.649 11.4736 15.9785C12.5476 13.5031 14.3825 11.7886 16.9644 10.9242C18.4209 10.4368 19.9087 10.4561 21.4012 10.7193C22.5513 10.9221 23.6241 11.3307 24.5796 12.0149C26.0284 13.0521 26.9133 14.4774 27.2629 16.198C28.0528 20.085 26.9779 23.408 24.1029 26.1418C23.6989 26.526 23.2296 26.8243 22.7448 27.1024C21.6318 27.7404 20.1415 27.5568 19.0901 26.6356C18.8407 26.4173 18.64 26.1131 18.595 25.7836C18.5381 25.3647 18.4688 24.945 18.5069 24.5098C18.5929 23.5282 18.8805 22.6001 19.15 21.6609C19.4089 20.7593 19.6738 19.859 19.9138 18.9519C20.079 18.3285 20.215 17.7037 20.1825 17.0439C20.1551 16.4851 19.9301 16.005 19.6815 15.5382C19.5458 15.2836 19.2604 15.13 18.9921 14.9965C18.15 14.5767 17.3054 14.5921 16.4894 15.0401C15.7812 15.4291 15.2622 16.0178 14.9041 16.7423C14.2836 17.9973 14.1685 19.319 14.3953 20.6836C14.4783 21.1846 14.5947 21.6789 14.8198 22.1367C14.9032 22.3057 14.8976 22.4696 14.8604 22.6326C14.6212 23.6746 14.3666 24.713 14.1291 25.7554C13.7979 27.2111 13.4852 28.6706 13.1497 30.125C12.9627 30.9363 12.7363 31.7386 12.6307 32.567C12.5186 33.4455 12.4728 34.3269 12.522 35.2118C12.5592 35.8806 12.6084 36.5485 12.6486 37.2173C12.6572 37.356 12.6499 37.495 12.6499 37.6324C12.2336 37.6705 11.9152 37.4428 11.5836 37.2926C10.4129 36.7621 9.29524 36.1309 8.25717 35.3706C7.92427 35.1267 7.58709 34.8862 7.28628 34.5909C7.08175 34.3898 6.81774 34.2362 6.59952 34.036C6.12926 33.6038 5.6757 33.1618 5.25979 32.6697C4.91448 32.2611 4.53537 31.8772 4.20632 31.4511C3.59956 30.6642 3.0463 29.8383 2.57647 28.9663C2.28807 28.4314 2.01765 27.882 1.77118 27.3206C1.43571 26.556 1.18668 25.7678 0.917108 24.983C0.699739 24.3515 0.61416 23.6951 0.495206 23.0443C0.0660303 20.6913 0.0895644 18.3443 0.475523 15.9828C0.695888 14.6353 1.09597 13.3512 1.57093 12.0842C1.76006 11.5797 2.04161 11.1103 2.26711 10.6183C2.67617 9.72483 3.20633 8.90071 3.77286 8.1074C4.51397 7.06976 5.33296 6.08861 6.28373 5.23025C7.17846 4.42197 8.11212 3.66374 9.13906 3.02233C10.2066 2.35525 11.3183 1.78615 12.4912 1.32831C14.1304 0.688606 15.8266 0.289383 17.5715 0.0989709C19.3392 -0.0940085 21.0939 -0.000300116 22.8504 0.295373C24.2736 0.534993 25.6347 0.973155 26.9698 1.47678C27.8401 1.80498 28.6655 2.27052 29.4691 2.75747C31.3758 3.91277 33.0471 5.33979 34.4587 7.06548C36.4048 9.44457 37.7248 12.1279 38.4206 15.1295C38.8296 16.8942 38.9858 18.6721 38.9041 20.4735C38.8433 21.8107 38.6204 23.126 38.2811 24.4225C37.9152 25.8226 37.4155 27.1747 36.7458 28.4537C35.0017 31.7848 32.5234 34.4309 29.2658 36.3303C27.829 37.1681 26.3112 37.813 24.7083 38.2661C22.5869 38.8664 20.432 39.0842 18.2322 38.9503C17.4924 38.9054 16.7517 38.8288 16.029 38.7103C15.4038 38.6076 14.7564 38.5194 14.151 38.2922C14.0769 38.2644 14.0132 38.2088 13.9404 38.163L13.9396 38.1634Z" fill="#CDD1D8"></path><path d="M46.1773 18.7213C46.1773 15.1416 46.1765 11.5622 46.1782 7.9825C46.1782 7.43693 46.1273 7.50925 46.66 7.50882C49.5123 7.50668 52.3646 7.50796 55.2165 7.50796C56.6962 7.50796 58.1262 7.77368 59.4728 8.3907C61.5262 9.33164 62.7915 10.9324 63.3041 13.1249C63.685 14.753 63.6469 16.3658 63.0577 17.9468C62.5023 19.4376 61.5652 20.6134 60.1886 21.429C58.8784 22.2052 57.4506 22.5201 55.9418 22.5218C54.6012 22.5231 53.2606 22.5218 51.9201 22.5218C51.8204 22.5218 51.7202 22.5248 51.6205 22.5227C51.4725 22.5193 51.4203 22.5972 51.4271 22.7358C51.4318 22.8355 51.4276 22.9356 51.4276 23.0353C51.4276 25.203 51.4276 27.3707 51.4276 29.5384C51.4276 29.6381 51.4216 29.7383 51.4276 29.838C51.437 29.9903 51.3604 30.0408 51.2213 30.0331C51.1644 30.0301 51.1071 30.0331 51.0502 30.0331C49.5525 30.0331 48.0553 30.0331 46.5577 30.0331C46.1379 30.0331 46.1765 30.06 46.1765 29.6313C46.176 25.9946 46.1765 22.358 46.1765 18.7213H46.1773ZM51.4284 15.2575C51.4284 16.1548 51.4305 17.0525 51.4263 17.9498C51.4254 18.1158 51.4532 18.2155 51.6556 18.2138C52.9945 18.2036 54.3355 18.2434 55.6718 18.1852C57.015 18.1265 57.9807 17.3315 58.3188 16.1343C58.4446 15.6897 58.4677 15.2348 58.4236 14.7787C58.3136 13.6384 57.6393 12.8155 56.5486 12.4809C56.2071 12.3761 55.8571 12.3098 55.499 12.3085C54.2452 12.3038 52.9919 12.3016 51.7382 12.3025C51.4365 12.3025 51.4301 12.3098 51.4293 12.6076C51.4258 13.4908 51.428 14.3739 51.428 15.2571L51.4284 15.2575Z" fill="#CDD1D8"></path><path d="M127.188 23.3671C127.401 25.4163 128.908 27.0667 131.239 26.8181C132.114 26.7248 132.846 26.3607 133.276 25.5391C133.361 25.3774 133.507 25.3996 133.648 25.3996C134.532 25.3996 135.416 25.3996 136.3 25.3996C136.998 25.3996 137.696 25.3996 138.431 25.3996C138.264 26.1788 137.932 26.8497 137.51 27.4796C136.879 28.4244 136.035 29.1253 135.038 29.6653C133.521 30.4864 131.889 30.7153 130.196 30.6725C129.496 30.655 128.802 30.548 128.125 30.4119C127.564 30.2994 127.011 30.0795 126.486 29.8133C125.18 29.1522 124.129 28.225 123.349 26.9807C122.853 26.1908 122.503 25.3496 122.304 24.4411C122.016 23.1258 121.972 21.807 122.152 20.4694C122.244 19.7959 122.394 19.1498 122.635 18.5187C123.068 17.3903 123.693 16.3809 124.576 15.5585C126.166 14.0772 128.096 13.452 130.24 13.4186C131.267 13.4028 132.29 13.4503 133.27 13.7965C134.492 14.2278 135.481 15.0091 136.352 15.9419C137.31 16.9671 137.894 18.1982 138.281 19.5384C138.603 20.6526 138.739 21.7891 138.779 22.9418C138.793 23.3299 138.786 23.3329 138.387 23.3329C134.809 23.3338 131.23 23.3329 127.651 23.3346C127.497 23.3346 127.338 23.3042 127.188 23.3671ZM133.472 20.2581C133.422 18.4245 132.186 17.0882 130.507 17.0951C128.621 17.1028 127.174 18.4729 127.208 20.2581H133.472H133.472Z" fill="#CDD1D8"></path><path d="M111.669 25.2399C111.454 26.0935 111.094 26.8218 110.62 27.4923C110.2 28.0849 109.692 28.6104 109.094 29.0122C108.554 29.3755 107.982 29.7002 107.357 29.9304C105.583 30.5843 103.769 30.6271 101.919 30.3981C101.055 30.2916 100.242 30.052 99.477 29.6566C98.8168 29.3156 98.1972 28.8992 97.6807 28.3597C97.0701 27.7217 96.507 27.0375 96.1369 26.2287C95.8421 25.5843 95.537 24.9224 95.4407 24.2232C95.2742 23.0136 95.1728 21.7954 95.3658 20.5673C95.4711 19.8985 95.593 19.2434 95.8523 18.6178C96.1942 17.7941 96.5755 17.003 97.1908 16.3277C97.5425 15.9418 97.8775 15.5554 98.2798 15.2122C99.2515 14.3834 100.377 13.902 101.6 13.6286C102.809 13.3586 104.031 13.3329 105.248 13.585C106.73 13.8913 108.058 14.5246 109.175 15.5486C109.884 16.1985 110.357 17.0291 110.758 17.8947C111.318 19.1048 111.685 20.3765 111.882 21.6944C111.947 22.1304 111.972 22.5728 111.996 23.0136C112.013 23.3293 111.999 23.3306 111.667 23.3362C111.582 23.3375 111.496 23.3362 111.41 23.3362C107.846 23.3362 104.282 23.3362 100.717 23.3375C100.562 23.3375 100.404 23.3088 100.253 23.3666C100.286 24.646 101.137 26.2193 102.563 26.6481C103.359 26.8868 104.165 26.9074 104.972 26.7512C105.635 26.6228 106.105 26.1979 106.374 25.5993C106.514 25.2887 106.694 25.2318 106.992 25.2343C108.403 25.2455 109.814 25.2395 111.226 25.2395C111.354 25.2395 111.481 25.2395 111.668 25.2395L111.669 25.2399ZM100.371 20.2639H106.684C106.707 19.8198 106.59 19.3251 106.347 18.8181C105.554 17.1638 103.644 16.6042 102.088 17.5793C101.111 18.1921 100.604 19.1142 100.371 20.2639H100.371Z" fill="#CDD1D8"></path><path d="M75.551 16.1254C75.72 16.0158 75.8099 15.8554 75.9293 15.7253C76.4004 15.211 76.8492 14.6791 77.4367 14.2816C78.0747 13.8498 78.785 13.6406 79.5278 13.5003C81.1628 13.1905 82.5295 13.763 83.7807 14.7595C84.7032 15.4942 85.372 16.4121 85.7978 17.5015C86.0301 18.0963 86.1739 18.718 86.1734 19.3675C86.17 22.8044 86.1734 26.2412 86.1726 29.678C86.1726 30.0297 86.1692 30.0323 85.7888 30.0327C84.3485 30.034 82.9082 30.0336 81.4679 30.0327C81.0486 30.0327 81.0802 30.0601 81.0802 29.6352C81.0798 26.726 81.0811 23.8167 81.0781 20.9075C81.0781 20.623 81.0768 20.3346 81.0357 20.0543C80.9275 19.3166 80.6759 18.6465 80.0328 18.1955C79.3858 17.7415 78.6631 17.6418 77.9078 17.8006C76.9887 17.994 76.3679 18.5785 75.9815 19.4095C75.7209 19.9704 75.6511 20.5797 75.6511 21.1955C75.6511 23.9477 75.6511 26.6999 75.6511 29.4525C75.6511 29.5381 75.6524 29.6237 75.6511 29.7092C75.6456 30.0272 75.6451 30.0319 75.3212 30.0323C73.8382 30.034 72.3551 30.0344 70.872 30.0323C70.5738 30.0319 70.5674 30.0255 70.5669 29.7272C70.5644 28.4581 70.5656 27.189 70.5656 25.9198C70.5656 22.0697 70.5648 18.2191 70.5665 14.3689C70.5665 13.8537 70.5079 13.9098 71.0188 13.9089C72.3594 13.9063 73.7 13.9068 75.0401 13.9089C75.5455 13.9098 75.4843 13.8567 75.4873 14.374C75.4903 14.8729 75.4873 15.3723 75.4881 15.8712C75.4881 15.9521 75.4753 16.0381 75.551 16.1258V16.1254Z" fill="#CDD1D8"></path><path d="M141.154 25.4028C141.867 25.4028 142.58 25.408 143.293 25.3994C143.475 25.3973 143.547 25.4482 143.613 25.6347C143.994 26.7045 144.8 27.2141 145.905 27.2894C146.56 27.3339 147.216 27.3493 147.863 27.206C148.819 26.9942 149.301 25.9214 148.828 25.0644C148.619 24.6865 148.261 24.4859 147.87 24.4011C147.377 24.2942 146.901 24.1144 146.393 24.0678C145.842 24.0173 145.288 23.9313 144.752 23.826C143.942 23.6673 143.118 23.5248 142.347 23.1739C141.955 22.9959 141.549 22.85 141.19 22.6095C140.385 22.0691 139.736 21.4153 139.376 20.4692C139.106 19.7589 139.12 19.0473 139.114 18.3234C139.093 15.8839 140.798 14.4449 142.483 13.9195C144.032 13.4364 145.616 13.3508 147.219 13.4651C148.219 13.5361 149.196 13.7316 150.121 14.13C151.985 14.9323 153.08 16.3401 153.405 18.3443C153.46 18.6836 153.445 18.7025 153.091 18.7029C151.722 18.705 150.353 18.7012 148.984 18.7067C148.777 18.7076 148.659 18.6853 148.608 18.4316C148.424 17.5082 147.794 17.0315 146.908 16.8535C146.271 16.7256 145.629 16.7504 144.994 16.8647C144.297 16.99 143.959 17.3657 143.893 18.0328C143.838 18.5762 144.053 18.9746 144.528 19.2348C145.074 19.5347 145.678 19.646 146.282 19.7487C147.334 19.9275 148.397 20.0478 149.424 20.3576C150.302 20.6224 151.143 20.9656 151.898 21.4957C153.441 22.5813 154.054 24.093 153.904 25.9407C153.812 27.0669 153.432 28.078 152.631 28.903C152.04 29.5119 151.326 29.9265 150.533 30.2115C150.153 30.3475 149.782 30.5213 149.391 30.6051C148.925 30.7053 148.443 30.7442 147.965 30.781C146.739 30.8764 145.521 30.8328 144.3 30.6479C143.376 30.508 142.511 30.2273 141.701 29.7909C140.342 29.0583 139.379 27.9655 138.924 26.4734C138.832 26.1718 138.873 25.8324 138.723 25.5329C138.685 25.458 138.762 25.4101 138.844 25.4084C138.944 25.4063 139.044 25.4033 139.143 25.4033C139.813 25.4028 140.484 25.4033 141.154 25.4033V25.4028Z" fill="#CDD1D8"></path><path d="M160.451 21.1806C160.451 22.2931 160.45 23.4057 160.452 24.5182C160.452 24.7176 160.45 24.9191 160.476 25.1159C160.583 25.9007 160.981 26.2785 161.769 26.3359C162.082 26.3585 162.397 26.3594 162.71 26.35C162.921 26.3436 163.014 26.3975 163.012 26.6328C163.002 27.7881 163.003 28.9434 163.011 30.0983C163.012 30.3093 162.935 30.3675 162.736 30.3623C161.525 30.3294 160.311 30.4265 159.103 30.2806C158.663 30.2275 158.232 30.1356 157.813 29.9896C156.494 29.5288 155.743 28.584 155.475 27.2306C155.386 26.7809 155.36 26.326 155.36 25.869C155.36 23.1023 155.359 20.3351 155.36 17.5684C155.36 17.0288 155.365 17.102 154.907 17.0985C154.593 17.0964 154.279 17.0938 153.965 17.099C153.822 17.1011 153.76 17.0468 153.76 16.8996C153.763 15.9727 153.765 15.0455 153.758 14.1187C153.757 13.9368 153.845 13.906 153.994 13.9077C154.322 13.9116 154.65 13.9107 154.978 13.9077C155.354 13.9043 155.359 13.9026 155.359 13.5325C155.362 12.1063 155.359 10.6801 155.361 9.25398C155.362 8.73409 155.312 8.78929 155.809 8.78843C157.221 8.78629 158.633 8.78715 160.045 8.78843C160.493 8.78843 160.451 8.75506 160.451 9.21033C160.452 10.6506 160.45 12.0913 160.452 13.5316C160.452 13.9035 160.456 13.9065 160.827 13.9077C161.511 13.9103 162.196 13.9142 162.881 13.9052C163.094 13.9022 163.181 13.9578 163.178 14.1923C163.165 15.0622 163.175 15.9321 163.172 16.802C163.17 17.0904 163.163 17.0955 162.851 17.0968C162.18 17.1002 161.51 17.0968 160.84 17.0985C160.454 17.0994 160.452 17.102 160.452 17.5007C160.451 18.7271 160.452 19.9539 160.452 21.1802L160.451 21.1806Z" fill="#CDD1D8"></path><path d="M88.0859 21.9976C88.0859 20.5287 88.0859 19.0597 88.0859 17.5908C88.0859 17.4911 88.0829 17.391 88.085 17.2913C88.0889 17.1436 88.0148 17.0953 87.8736 17.097C87.4744 17.1021 87.0748 17.1008 86.6755 17.0978C86.3405 17.0953 86.3345 17.0923 86.3332 16.7816C86.3298 15.9258 86.3302 15.0701 86.3332 14.2147C86.3345 13.9178 86.3401 13.9139 86.6426 13.91C86.9849 13.9058 87.3276 13.9002 87.6691 13.9122C87.8741 13.919 87.9451 13.8416 87.9404 13.6388C87.9297 13.2113 87.9374 12.783 87.9374 12.3551C87.9374 11.2712 87.9357 10.1874 87.9387 9.10354C87.9395 8.79631 87.9451 8.78989 88.2361 8.78903C89.7337 8.78647 91.2309 8.78647 92.7285 8.78903C93.0165 8.78946 93.022 8.79631 93.0225 9.10525C93.0246 10.5173 93.0233 11.9289 93.0233 13.341C93.0233 13.4407 93.0319 13.5416 93.0216 13.6405C93.0002 13.8501 93.0973 13.913 93.2955 13.9105C93.88 13.9032 94.4649 13.9083 95.0498 13.9088C95.4448 13.9088 95.4199 13.8844 95.4195 14.2802C95.4195 15.0932 95.4208 15.9062 95.4191 16.7187C95.4182 17.094 95.4157 17.0966 95.0554 17.0978C94.4991 17.1 93.9429 17.097 93.3866 17.0991C93.0293 17.1008 93.0242 17.1034 93.0237 17.4402C93.0225 19.8646 93.0216 22.289 93.0259 24.7135C93.0259 24.9261 93.049 25.1414 93.0901 25.3502C93.1863 25.8388 93.4794 26.1448 93.9685 26.274C94.3485 26.3741 94.7327 26.3532 95.1161 26.351C95.3198 26.3497 95.4229 26.3878 95.4306 26.6253C95.4687 27.7793 95.5209 28.9329 95.5753 30.0865C95.5843 30.2816 95.5393 30.3689 95.3198 30.3634C94.1089 30.3334 92.8975 30.3989 91.6866 30.2744C90.8766 30.1913 90.1462 29.9419 89.4825 29.4798C89.1385 29.2406 88.9057 28.9085 88.6759 28.5645C88.2797 27.9702 88.1723 27.3005 88.1278 26.6163C88.0354 25.1919 88.1021 23.7648 88.0846 22.3391C88.0833 22.2249 88.0846 22.111 88.0846 21.9968L88.0859 21.9976Z" fill="#CDD1D8"></path><path d="M117.5 16.431C117.751 16.0835 117.975 15.7429 118.23 15.4284C119.115 14.3373 120.289 13.8217 121.672 13.7532C121.939 13.74 122.279 13.6326 122.458 13.7995C122.643 13.9715 122.496 14.3095 122.488 14.5739C122.455 15.6569 122.411 16.7395 122.371 17.8225C122.367 17.9222 122.381 18.0287 122.349 18.119C122.314 18.2204 122.268 18.2825 122.101 18.2457C121.585 18.1327 121.059 18.131 120.561 18.345C120.451 18.392 120.346 18.3646 120.235 18.3993C119.13 18.7455 118.39 19.457 117.971 20.5362C117.688 21.2649 117.584 22.0188 117.581 22.7882C117.573 25.0984 117.579 27.409 117.577 29.7192C117.577 30.2579 117.634 30.195 117.098 30.1959C115.714 30.1984 114.331 30.1984 112.948 30.1959C112.444 30.195 112.476 30.2712 112.476 29.7068C112.475 24.7295 112.476 19.7523 112.476 14.7751C112.476 14.5752 112.486 14.375 112.473 14.1764C112.46 13.974 112.533 13.9 112.741 13.9039C113.325 13.915 113.91 13.9073 114.494 13.9073C115.364 13.9073 116.234 13.9051 117.104 13.9086C117.405 13.9094 117.411 13.9154 117.412 14.2111C117.416 14.8529 117.411 15.4948 117.416 16.1362C117.416 16.2282 117.373 16.3364 117.499 16.431H117.5Z" fill="#CDD1D8"></path><path d="M64.3368 22.0632C64.3368 19.5395 64.3368 17.0158 64.3368 14.492C64.3368 14.4065 64.3355 14.3209 64.3368 14.2353C64.3432 13.9174 64.3436 13.9118 64.6701 13.9114C66.1245 13.9093 67.5789 13.9105 69.0333 13.9105C69.4997 13.9105 69.4441 13.9054 69.4445 14.3316C69.4462 17.9931 69.4449 21.6545 69.4445 25.3156C69.4445 26.7687 69.4445 28.2218 69.4445 29.6749C69.4445 29.7888 69.4402 29.903 69.4432 30.0168C69.4462 30.1426 69.385 30.1987 69.2631 30.1974C69.2062 30.197 69.1488 30.1991 69.0919 30.1991C67.6234 30.1991 66.1549 30.2004 64.6859 30.1983C64.3419 30.1983 64.3376 30.1935 64.3372 29.8482C64.3359 27.2531 64.3363 24.6579 64.3363 22.0632H64.3368Z" fill="#CDD1D8"></path><path d="M66.8511 6.55703C68.5708 6.52965 69.8763 7.93613 69.9097 9.50521C69.9448 11.1505 68.6795 12.5967 66.9294 12.6275C65.1267 12.6592 63.858 11.3101 63.8516 9.58266C63.8452 7.73417 65.2409 6.54762 66.8507 6.55703H66.8511Z" fill="#CDD1D8"></path></g><defs><clipPath id="clip0_4410_5431"><rect width="163" height="38.99" fill="white" transform="translate(0.179688)"></rect></clipPath></defs></svg>