<svg xmlns="http://www.w3.org/2000/svg" width="176" height="27" viewBox="0 0 176 27" fill="none"><path d="M92.7258 1.43505C95.0464 1.36019 97.3669 1.36019 99.6874 1.43505C101.484 1.43505 103.131 2.55789 104.141 4.01757C104.965 5.29012 105.002 6.86209 104.778 8.32177C104.553 9.78145 103.468 10.9417 102.307 11.7651C100.211 13.0751 97.7037 12.4763 95.3832 12.626C95.1586 15.0588 95.3832 17.529 95.3084 19.9618C94.4475 20.0367 93.5867 20.0367 92.7258 19.9618C92.6884 13.7862 92.651 7.61063 92.7258 1.43505ZM95.3458 4.01757C95.1961 6.00125 95.1586 8.02234 95.3084 10.0434C96.9178 10.0434 98.5271 10.1557 100.137 9.96859C102.307 9.22004 102.869 6.07609 101.11 4.61641C99.4254 3.531 97.2546 4.16729 95.3458 4.01757ZM131.426 6.45038C131.464 5.29012 131.314 4.12985 131.576 3.00702C132.399 3.00702 133.223 3.00702 134.084 3.04445C134.158 4.16728 134.084 5.29012 134.158 6.41295C135.019 6.86208 136.142 6.52523 137.153 6.67494C137.19 7.46092 137.19 8.24692 137.153 9.07033C136.142 9.10775 135.132 9.14518 134.158 9.25747C134.158 11.6528 134.121 14.0482 134.158 16.481C134.121 17.1173 134.42 17.8284 135.094 17.9781C135.843 17.9781 136.591 17.9781 137.34 17.9033C137.415 18.7267 137.34 19.5501 137.153 20.3361C135.955 20.4109 134.72 20.5607 133.522 20.2238C132.586 19.6624 131.613 18.8016 131.576 17.6413C131.314 14.8716 131.651 12.102 131.389 9.33231C130.64 9.22003 129.854 9.10775 129.106 8.99547C129.106 8.24691 129.106 7.49835 129.143 6.7498C129.892 6.60009 130.715 6.67495 131.426 6.45038ZM107.023 9.0329C109.082 5.17783 115.632 5.17783 117.728 9.0329C118.326 10.3054 118.177 11.7651 118.214 13.1125C118.177 15.3956 118.252 17.6787 118.177 19.9618C117.503 19.9992 116.829 19.9992 116.156 19.9618C115.931 19.6624 115.744 19.3255 115.519 19.0261C113.985 19.9992 112.188 21.0098 110.354 20.3735C107.66 19.9618 105.601 16.8927 106.799 14.3102C107.547 12.3265 109.718 11.4283 111.702 11.2786C113.087 11.1663 114.434 11.6528 115.819 11.7277C115.669 10.1183 114.471 8.54634 112.712 8.65862C111.178 8.39662 109.905 9.33232 108.895 10.3803C108.146 10.0434 107.547 9.55689 107.023 9.0329ZM109.157 16.1067C109.269 17.4541 110.729 18.2027 111.964 18.1278C113.91 17.9781 115.482 16.4062 115.594 14.4599C114.546 13.5242 112.974 13.4494 111.664 13.5617C110.354 13.6739 109.007 14.6845 109.157 16.1067ZM141.981 7.68549C143.179 6.97437 144.414 6.03867 145.948 6.18838C148.531 5.96382 150.851 8.24692 150.851 10.7546C150.889 13.8237 150.851 16.8553 150.851 19.9244C149.99 19.9992 149.13 20.0367 148.269 19.9618C148.156 16.9302 148.418 13.8985 148.119 10.8669C147.969 8.92061 145.574 8.32176 144.002 8.92061C142.617 9.51945 141.869 11.0166 141.831 12.4762C141.756 14.9839 141.869 17.4541 141.831 19.9618C140.933 20.0367 140.072 20.0367 139.174 19.9618C139.136 15.5453 139.136 11.0914 139.174 6.67494C139.997 6.60008 140.783 6.60009 141.607 6.71237C141.719 6.89951 141.906 7.4235 141.981 7.68549ZM155.53 7.38608C158.037 5.43983 162.042 5.77667 164.138 8.17205C165.448 9.74402 166.009 11.8026 165.747 13.8611C162.379 13.9734 158.973 13.8611 155.605 13.8985C155.305 16.3687 157.85 18.3898 160.208 17.9781C161.593 17.9407 162.416 16.743 163.352 15.8822C164.175 15.8073 164.849 16.4062 165.523 16.7056C164.175 20.0741 159.722 21.4589 156.54 19.8121C151.862 17.6787 151.525 10.3803 155.53 7.38608ZM155.567 11.6528C158 11.7651 160.47 11.7651 162.94 11.6528C162.716 9.81888 161.069 8.50891 159.235 8.65862C157.401 8.54634 156.091 10.0809 155.567 11.6528ZM172.672 6.33809C173.607 6.03867 174.618 6.18838 175.591 6.33809C175.666 7.23636 175.703 8.13463 175.666 9.0329C174.693 8.99547 173.682 8.73347 172.709 8.95804C171.324 9.51945 170.389 10.8669 170.426 12.364C170.351 14.8716 170.463 17.3419 170.426 19.8495C169.565 19.9618 168.667 19.9618 167.806 19.887C167.769 15.4705 167.769 11.0166 167.806 6.60009C168.48 6.52523 169.191 6.52523 169.865 6.52523C170.089 6.86208 170.314 7.19893 170.576 7.53578C171.287 7.12408 171.998 6.71237 172.672 6.33809ZM122.967 7.94749C123.941 7.4235 124.801 6.56266 125.962 6.56266C126.561 6.52523 127.197 6.56266 127.796 6.60009C127.833 7.4235 127.833 8.24691 127.833 9.0329C126.673 9.22004 125.288 8.92061 124.352 9.78145C123.716 10.3803 123.117 11.1663 123.117 12.102C123.005 14.7968 123.192 17.4916 123.042 20.2238C122.219 20.2987 121.358 20.2987 120.497 20.2612C120.422 15.8073 120.422 11.3534 120.497 6.93694C121.246 6.86208 121.957 6.89951 122.706 7.0118C122.743 7.19894 122.893 7.6855 122.967 7.94749Z" fill="#CDD1D8" stroke="#CDD1D8" stroke-width="0.0935695" stroke-miterlimit="10"></path><path d="M4.8083 2.85888C7.5031 0.725494 11.3956 0.575783 14.5395 1.73604C15.6624 2.26003 16.9349 2.8963 17.4963 4.13142C16.9723 4.73027 16.4109 5.29168 15.7746 5.77824C14.8764 5.02969 13.9407 4.2437 12.8178 3.86942C10.0108 3.04601 6.67969 3.90685 4.95801 6.33966C3.49833 8.02391 3.42347 10.4193 3.76032 12.5527C4.39659 15.8463 7.76509 18.2791 11.0962 17.9797C14.0904 18.0171 17.0472 15.5095 17.0472 12.403C14.8764 12.2533 12.7056 12.403 10.5348 12.3281C10.2353 11.6544 10.1979 10.8684 10.385 10.1573C13.4167 9.85788 16.5232 10.045 19.5548 10.045C19.8917 12.7772 19.48 15.8089 17.384 17.7926C14.0155 21.3856 7.9148 21.4231 4.28431 18.2791C0.129825 14.7609 -0.356736 8.51048 3.1989 4.35599C3.68546 3.832 4.20945 3.30801 4.8083 2.85888ZM67.4998 1.54891C68.3607 1.39919 69.259 1.36176 70.1198 1.43662C70.2321 7.57477 70.1572 13.7129 70.1572 19.8511C69.2964 20.1505 68.3981 20.0008 67.4998 19.9634C67.4624 13.8252 67.4998 7.68706 67.4998 1.54891ZM26.5164 6.41452C28.4252 6.00281 30.5586 6.22738 32.168 7.38764C35.3119 9.44617 36.1728 14.0872 34.1891 17.2311C33.0289 19.4394 30.4463 20.5997 28.0135 20.5997C26.3667 20.4125 24.6825 19.8511 23.5222 18.6534C21.5385 16.782 20.9022 13.7129 21.6882 11.1678C22.2496 8.80989 24.2708 7.05079 26.5164 6.41452ZM26.8533 8.9596C25.2813 9.55845 24.2333 11.0181 24.1585 12.665C24.0088 14.2743 24.3082 16.1457 25.693 17.1563C27.8264 19.0277 31.644 17.83 32.3177 15.0978C32.6546 13.3761 32.692 11.2053 31.2323 9.93273C30.2218 8.69761 28.3504 8.47304 26.8533 8.9596ZM41.5624 6.45195C43.3215 6.07767 45.2677 6.11509 46.8397 7.08821C50.5451 8.99703 51.5182 14.3118 49.1602 17.6054C47.9625 19.5517 45.642 20.5997 43.3963 20.6371C41.263 20.4874 39.0547 19.5517 37.857 17.7177C36.6593 16.1457 36.4722 14.0872 36.6593 12.1784C36.9213 9.4836 39.0547 7.23793 41.5624 6.45195ZM42.1612 8.92217C38.643 10.0076 38.1939 15.3972 41.1133 17.3809C42.5355 18.354 44.7437 18.354 46.0537 17.1563C48.1871 15.472 48.2994 11.9913 46.5403 10.0076C45.4549 8.77247 43.6583 8.47304 42.1612 8.92217ZM52.0047 11.1304C52.7159 8.32334 55.3732 5.92796 58.3675 6.22738C59.8271 6.1151 60.9874 7.08822 62.1851 7.76192C62.2974 7.38764 62.4097 7.01337 62.5219 6.63909C63.3079 6.60166 64.0939 6.60166 64.8425 6.63909C64.9173 10.9059 64.8425 15.21 64.8799 19.4768C64.9173 21.5728 64.0565 23.8559 62.2225 25.0161C60.6131 26.0641 58.592 26.0641 56.7581 25.877C54.6995 25.5776 52.9779 24.1553 52.3416 22.1716C52.9779 21.6851 53.689 21.0862 54.5124 21.2359C55.2235 21.9845 55.8224 22.8453 56.7581 23.3319C58.4423 24.1553 60.6506 23.4442 61.736 21.9471C62.3348 21.0488 62.2974 19.926 62.2974 18.9154C60.9126 19.8137 59.3406 20.7868 57.6189 20.5997C55.8972 20.3377 54.0633 19.5891 53.0901 18.0546C51.6679 16.0709 51.4059 13.4509 52.0047 11.1304ZM56.8329 8.99703C53.9136 10.3444 53.5393 14.6861 55.5978 16.9317C56.8329 18.1668 58.7043 18.4288 60.2389 17.6054C63.1208 15.8463 63.1582 11.0181 60.3511 9.18417C59.2657 8.62276 57.9932 8.5479 56.8329 8.99703ZM74.2743 8.09877C75.5094 6.7888 77.2311 6.1151 79.0276 6.22738C81.2358 6.1151 83.2944 7.53735 84.4172 9.37131C85.1658 10.7187 85.2406 12.2907 85.2032 13.8252C81.8721 14.2369 78.4662 13.8252 75.0977 14.0124C74.7983 16.5574 77.5305 18.616 79.9259 18.0171C81.3107 17.8674 82.0593 16.6697 82.8827 15.734C83.5938 16.0335 84.2675 16.3703 84.9412 16.6697C84.4921 18.616 82.5084 19.9259 80.637 20.3751C78.6533 20.9739 76.5199 20.3377 74.8731 19.2148C73.0766 17.9048 72.4029 15.5843 72.1783 13.4884C72.328 11.5796 72.8146 9.4836 74.2743 8.09877ZM77.1562 9.03446C75.996 9.44617 75.472 10.6813 75.1351 11.7667C77.5679 11.8041 80.0007 11.8041 82.4335 11.7667C82.1715 10.9807 81.9844 10.0824 81.3107 9.52102C80.1879 8.58533 78.5036 8.5479 77.1562 9.03446Z" fill="#CDD1D8" stroke="#CDD1D8" stroke-width="0.374278" stroke-miterlimit="10"></path></svg>