<svg xmlns="http://www.w3.org/2000/svg" width="671" height="196" viewBox="0 0 671 196" fill="none"><path d="M105.435 63.4723C104.725 56.3108 101.677 50.7474 96.2912 46.782C90.9053 42.8165 83.5959 40.8338 74.3629 40.8338C68.0893 40.8338 62.7921 41.7216 58.4716 43.4972C54.151 45.2135 50.8366 47.6106 48.5284 50.6882C46.2794 53.7659 45.1548 57.2578 45.1548 61.1641C45.0365 64.4193 45.7171 67.2602 47.1967 69.6868C48.7356 72.1134 50.8366 74.2145 53.5 75.9901C56.1634 77.7064 59.241 79.2157 62.733 80.5178C66.2249 81.7607 69.9536 82.826 73.919 83.7138L90.2543 87.62C98.1851 89.3956 105.465 91.763 112.094 94.7223C118.723 97.6816 124.464 101.321 129.317 105.642C134.17 109.963 137.928 115.053 140.592 120.912C143.314 126.771 144.705 133.489 144.764 141.065C144.705 152.192 141.864 161.839 136.241 170.006C130.678 178.115 122.629 184.418 112.094 188.916C101.618 193.355 88.9818 195.575 74.1854 195.575C59.5073 195.575 46.7232 193.326 35.8331 188.827C25.0021 184.329 16.5386 177.671 10.4425 168.852C4.40554 159.974 1.23911 148.996 0.943182 135.915H38.1413C38.5556 142.012 40.3016 147.102 43.3793 151.185C46.5161 155.21 50.6887 158.258 55.897 160.33C61.1645 162.342 67.1127 163.348 73.7415 163.348C80.2519 163.348 85.9041 162.401 90.6982 160.507C95.5514 158.613 99.3097 155.979 101.973 152.606C104.636 149.232 105.968 145.356 105.968 140.976C105.968 136.892 104.755 133.459 102.328 130.678C99.9607 127.896 96.4688 125.528 91.8523 123.575C87.295 121.622 81.7019 119.847 75.0732 118.249L55.2756 113.277C39.9465 109.548 27.843 103.719 18.9652 95.7876C10.0874 87.8568 5.67803 77.1738 5.73722 63.7386C5.67803 52.7301 8.60772 43.1124 14.5263 34.8857C20.504 26.6589 28.7012 20.2372 39.1179 15.6207C49.5346 11.0043 61.3717 8.69602 74.6293 8.69602C88.1236 8.69602 99.9015 11.0043 109.963 15.6207C120.084 20.2372 127.955 26.6589 133.578 34.8857C139.201 43.1124 142.101 52.6413 142.278 63.4723H105.435ZM163.161 193V56.6364H200.98V193H163.161ZM182.159 39.0582C176.537 39.0582 171.713 37.1939 167.688 33.4652C163.723 29.6773 161.74 25.1496 161.74 19.8821C161.74 14.6738 163.723 10.2053 167.688 6.47656C171.713 2.68868 176.537 0.794735 182.159 0.794735C187.782 0.794735 192.576 2.68868 196.541 6.47656C200.566 10.2053 202.578 14.6738 202.578 19.8821C202.578 25.1496 200.566 29.6773 196.541 33.4652C192.576 37.1939 187.782 39.0582 182.159 39.0582ZM286.671 195.663C272.644 195.663 260.57 192.822 250.449 187.141C240.388 181.4 232.634 173.291 227.189 162.815C221.744 152.28 219.022 139.822 219.022 125.44C219.022 111.413 221.744 99.102 227.189 88.5078C232.634 77.9136 240.299 69.6572 250.183 63.7386C260.126 57.8201 271.786 54.8608 285.162 54.8608C294.158 54.8608 302.533 56.3108 310.286 59.2109C318.098 62.0518 324.905 66.3428 330.705 72.0838C336.564 77.8248 341.122 85.0455 344.377 93.7457C347.632 102.387 349.26 112.508 349.26 124.108V134.495H234.114V111.058H313.659C313.659 105.612 312.476 100.789 310.108 96.5866C307.741 92.3845 304.456 89.0997 300.254 86.7322C296.111 84.3056 291.287 83.0923 285.783 83.0923C280.042 83.0923 274.952 84.424 270.513 87.0874C266.133 89.6915 262.701 93.2131 260.215 97.652C257.729 102.032 256.457 106.915 256.397 112.3V134.584C256.397 141.331 257.64 147.161 260.126 152.073C262.671 156.986 266.252 160.773 270.868 163.437C275.485 166.1 280.959 167.432 287.292 167.432C291.494 167.432 295.342 166.84 298.833 165.656C302.325 164.473 305.314 162.697 307.8 160.33C310.286 157.962 312.18 155.062 313.482 151.629L348.461 153.938C346.685 162.342 343.045 169.681 337.541 175.955C332.096 182.169 325.053 187.022 316.412 190.514C307.83 193.947 297.916 195.663 286.671 195.663ZM367.19 193V56.6364H403.855V80.429H405.276C407.762 71.9654 411.934 65.5734 417.794 61.2528C423.653 56.8731 430.4 54.6832 438.035 54.6832C439.929 54.6832 441.971 54.8016 444.161 55.0383C446.351 55.2751 448.274 55.6006 449.931 56.0149V89.5731C448.156 89.0405 445.7 88.567 442.563 88.1527C439.426 87.7384 436.556 87.5312 433.951 87.5312C428.388 87.5312 423.416 88.7446 419.037 91.1712C414.716 93.5386 411.283 96.853 408.738 101.114C406.252 105.376 405.01 110.288 405.01 115.852V193H367.19ZM462.735 193V56.6364H499.4V80.429H500.821C503.307 71.9654 507.479 65.5734 513.339 61.2528C519.198 56.8731 525.945 54.6832 533.58 54.6832C535.474 54.6832 537.516 54.8016 539.706 55.0383C541.896 55.2751 543.819 55.6006 545.476 56.0149V89.5731C543.701 89.0405 541.245 88.567 538.108 88.1527C534.971 87.7384 532.1 87.5312 529.496 87.5312C523.933 87.5312 518.961 88.7446 514.581 91.1712C510.261 93.5386 506.828 96.853 504.283 101.114C501.797 105.376 500.555 110.288 500.555 115.852V193H462.735ZM593.259 195.575C584.558 195.575 576.805 194.065 569.999 191.047C563.192 187.969 557.806 183.442 553.841 177.464C549.935 171.427 547.982 163.91 547.982 154.914C547.982 147.338 549.372 140.976 552.154 135.827C554.936 130.678 558.724 126.535 563.518 123.398C568.312 120.261 573.757 117.893 579.853 116.295C586.008 114.697 592.46 113.573 599.207 112.922C607.138 112.093 613.53 111.324 618.383 110.614C623.236 109.844 626.758 108.72 628.947 107.24C631.137 105.76 632.232 103.571 632.232 100.67V100.138C632.232 94.5152 630.457 90.165 626.906 87.0874C623.414 84.0097 618.442 82.4709 611.991 82.4709C605.184 82.4709 599.769 83.9801 595.744 86.9986C591.72 89.9579 589.056 93.6866 587.754 98.1847L552.776 95.3438C554.551 87.0578 558.043 79.8963 563.251 73.8594C568.46 67.7633 575.177 63.0876 583.404 59.8324C591.69 56.518 601.278 54.8608 612.168 54.8608C619.744 54.8608 626.994 55.7486 633.919 57.5241C640.903 59.2997 647.088 62.0518 652.474 65.7805C657.919 69.5092 662.21 74.3033 665.347 80.1626C668.483 85.9628 670.052 92.9171 670.052 101.026V193H634.185V174.09H633.12C630.93 178.352 628 182.11 624.331 185.365C620.661 188.561 616.252 191.076 611.103 192.911C605.954 194.687 600.006 195.575 593.259 195.575ZM604.089 169.474C609.653 169.474 614.565 168.379 618.827 166.189C623.088 163.94 626.432 160.921 628.859 157.134C631.285 153.346 632.499 149.055 632.499 144.261V129.79C631.315 130.559 629.687 131.269 627.616 131.92C625.603 132.512 623.325 133.075 620.78 133.607C618.235 134.081 615.69 134.525 613.145 134.939C610.6 135.294 608.292 135.62 606.22 135.915C601.781 136.567 597.905 137.602 594.59 139.023C591.276 140.443 588.701 142.367 586.866 144.793C585.032 147.161 584.114 150.12 584.114 153.671C584.114 158.82 585.979 162.756 589.707 165.479C593.495 168.142 598.289 169.474 604.089 169.474Z" fill="white"></path></svg>