<svg xmlns="http://www.w3.org/2000/svg" class="u-text-white u-mb-1-5" width="100%" viewBox="0 0 362 55" fill="none"><path fill-rule="evenodd" clip-rule="evenodd" d="M100.491 0.913086H92.5005V45.8775C92.5005 48.6378 93.2511 50.7686 94.7523 52.2698C96.302 53.7711 98.457 54.5217 101.217 54.5217C102.476 54.5217 103.905 54.3522 105.503 54.0132C107.101 53.7226 108.481 53.311 109.644 52.7783L108.481 46.5312C107.852 46.7734 107.174 46.9913 106.447 47.185C105.769 47.3787 105.164 47.4756 104.631 47.4756C103.324 47.4756 102.307 47.0881 101.581 46.3133C100.854 45.4901 100.491 44.3762 100.491 42.9719V0.913086ZM306.883 54.667C303.977 54.667 301.338 53.989 298.965 52.633C296.641 51.2286 294.801 49.3642 293.445 47.0397V53.9406H286.398V0.913086H294.389V23.141C295.89 20.7197 297.755 18.8068 299.982 17.4025C302.258 15.9981 304.922 15.2959 307.973 15.2959C310.491 15.2959 312.791 15.8528 314.873 16.9666C316.956 18.032 318.723 19.4848 320.176 21.325C321.677 23.1168 322.815 25.2234 323.59 27.6447C324.414 30.0177 324.825 32.5116 324.825 35.1267C324.825 37.8386 324.365 40.381 323.445 42.7539C322.525 45.1269 321.266 47.2092 319.668 49.001C318.07 50.7444 316.157 52.1245 313.929 53.1415C311.75 54.1585 309.401 54.667 306.883 54.667ZM304.776 47.8388C306.52 47.8388 308.118 47.4998 309.571 46.8218C311.024 46.0954 312.258 45.1511 313.275 43.9888C314.341 42.8266 315.164 41.4948 315.745 39.9936C316.326 38.4439 316.617 36.8216 316.617 35.1267C316.617 33.4318 316.326 31.8095 315.745 30.2598C315.212 28.6617 314.438 27.2815 313.421 26.1193C312.452 24.9086 311.266 23.9401 309.861 23.2137C308.505 22.4873 307.004 22.1241 305.358 22.1241C302.888 22.1241 300.684 22.9231 298.747 24.5212C296.859 26.1193 295.406 28.0564 294.389 30.3324V40.3568C294.679 41.4706 295.188 42.4876 295.914 43.4077C296.641 44.2794 297.488 45.0542 298.457 45.7322C299.425 46.4102 300.466 46.9429 301.58 47.3303C302.694 47.6693 303.759 47.8388 304.776 47.8388ZM346.54 54.6704C343.489 54.6704 340.438 54.1861 337.388 53.2176C334.385 52.2006 331.794 50.772 329.615 48.9318L332.811 43.847C335.087 45.4935 337.339 46.7526 339.567 47.6243C341.794 48.4476 344.07 48.8592 346.395 48.8592C348.768 48.8592 350.632 48.3991 351.988 47.479C353.393 46.5589 354.095 45.2514 354.095 43.5564C354.095 41.9583 353.32 40.7961 351.77 40.0697C350.221 39.3433 347.799 38.5443 344.506 37.6726C342.133 37.043 340.099 36.4377 338.405 35.8566C336.71 35.2754 335.329 34.5975 334.264 33.8226C333.199 33.0478 332.424 32.1519 331.939 31.1349C331.455 30.118 331.213 28.8831 331.213 27.4303C331.213 25.4932 331.576 23.774 332.303 22.2728C333.078 20.7716 334.119 19.5125 335.426 18.4955C336.782 17.4301 338.356 16.6311 340.148 16.0984C341.94 15.5657 343.877 15.2993 345.959 15.2993C348.816 15.2993 351.48 15.7352 353.95 16.6069C356.419 17.4785 358.623 18.7376 360.56 20.3842L357.146 25.1784C353.611 22.3697 349.857 20.9653 345.886 20.9653C343.853 20.9653 342.133 21.4011 340.729 22.2728C339.373 23.0961 338.695 24.4278 338.695 26.268C338.695 27.0429 338.84 27.6966 339.131 28.2293C339.421 28.762 339.882 29.2221 340.511 29.6095C341.189 29.9969 342.037 30.3601 343.053 30.6991C344.119 30.9897 345.426 31.3286 346.976 31.7161C349.543 32.3456 351.746 32.9752 353.586 33.6047C355.475 34.2343 357.025 34.9849 358.235 35.8566C359.446 36.6798 360.342 37.6726 360.923 38.8348C361.504 39.9486 361.795 41.3046 361.795 42.9027C361.795 46.5347 360.415 49.4161 357.654 51.5469C354.942 53.6292 351.238 54.6704 346.54 54.6704ZM249.613 53.7987C251.211 54.3798 252.93 54.6704 254.771 54.6704C257.628 54.6704 260.291 54.0893 262.761 52.927C265.279 51.7164 267.386 49.9972 269.081 47.7696L269.299 50.1667C269.492 51.3774 270.001 52.3701 270.824 53.145C271.696 53.9198 272.906 54.3072 274.456 54.3072C274.989 54.3072 275.521 54.283 276.054 54.2346C276.635 54.1861 277.313 54.0893 278.088 53.944V47.1158C276.684 47.0674 275.982 46.1957 275.982 44.5008V30.7717C275.982 25.7838 274.529 21.958 271.623 19.2946C268.717 16.6311 264.65 15.2993 259.42 15.2993C254.141 15.2993 249.056 16.9459 244.165 20.2389L246.635 25.3237C248.717 23.9193 250.727 22.8539 252.664 22.1275C254.649 21.3527 256.659 20.9653 258.693 20.9653C261.696 20.9653 263.996 21.7643 265.594 23.3624C267.192 24.9121 267.991 27.0913 267.991 29.9V32.5151C266.587 31.9824 265.013 31.5708 263.269 31.2802C261.526 30.9412 259.759 30.7717 257.967 30.7717C255.594 30.7717 253.415 31.0623 251.429 31.6434C249.492 32.2245 247.797 33.0478 246.344 34.1132C244.94 35.1786 243.85 36.4377 243.075 37.8905C242.301 39.3433 241.913 40.9656 241.913 42.7574C241.913 44.4523 242.228 46.0262 242.858 47.479C243.536 48.9318 244.431 50.1909 245.545 51.2563C246.707 52.3217 248.063 53.1692 249.613 53.7987ZM262.398 47.7696C260.703 48.4476 258.887 48.7865 256.95 48.7865C254.771 48.7865 252.979 48.157 251.574 46.8979C250.17 45.5904 249.468 43.9923 249.468 42.1036C249.468 40.0697 250.364 38.4474 252.155 37.2367C253.996 35.9776 256.344 35.3481 259.202 35.3481C260.654 35.3481 262.131 35.4934 263.633 35.7839C265.182 36.0745 266.635 36.4861 267.991 37.0188V42.031C267.991 42.9995 267.483 43.9196 266.466 44.7913C265.497 46.0504 264.141 47.0432 262.398 47.7696ZM202.538 53.9684V2.39379H210.674V46.777H238.35V53.9684H202.538ZM169.805 25.0317C172.226 23.6757 174.986 22.9493 178.086 22.8524V15.661C177.844 15.6126 177.553 15.5884 177.214 15.5884H176.052C173.631 15.7337 171.354 16.6054 169.224 18.2035C167.141 19.7531 165.446 21.8355 164.139 24.4505V15.9516H156.73V53.9425H164.72V30.6976C165.737 28.2278 167.432 26.3392 169.805 25.0317ZM125.102 54.6704C123.261 54.6704 121.542 54.3798 119.944 53.7987C118.394 53.1692 117.038 52.3217 115.876 51.2563C114.762 50.1909 113.867 48.9318 113.189 47.479C112.559 46.0262 112.244 44.4523 112.244 42.7574C112.244 40.9656 112.632 39.3433 113.406 37.8905C114.181 36.4377 115.271 35.1786 116.675 34.1132C118.128 33.0478 119.823 32.2245 121.76 31.6434C123.746 31.0623 125.925 30.7717 128.298 30.7717C130.09 30.7717 131.857 30.9412 133.6 31.2802C135.344 31.5708 136.918 31.9824 138.322 32.5151V29.9C138.322 27.0913 137.523 24.9121 135.925 23.3624C134.327 21.7643 132.027 20.9653 129.024 20.9653C126.99 20.9653 124.98 21.3527 122.995 22.1275C121.058 22.8539 119.048 23.9193 116.966 25.3237L114.496 20.2389C119.387 16.9459 124.472 15.2993 129.751 15.2993C134.981 15.2993 139.049 16.6311 141.954 19.2946C144.86 21.958 146.313 25.7838 146.313 30.7717V44.5008C146.313 46.1957 147.015 47.0674 148.419 47.1158V53.944C147.644 54.0893 146.966 54.1861 146.385 54.2346C145.853 54.283 145.32 54.3072 144.787 54.3072C143.237 54.3072 142.027 53.9198 141.155 53.145C140.332 52.3701 139.823 51.3774 139.63 50.1667L139.412 47.7696C137.717 49.9972 135.61 51.7164 133.092 52.927C130.622 54.0893 127.959 54.6704 125.102 54.6704ZM127.281 48.7865C129.218 48.7865 131.034 48.4476 132.729 47.7696C134.472 47.0432 135.828 46.0504 136.797 44.7913C137.814 43.9196 138.322 42.9995 138.322 42.031V37.0188C136.966 36.4861 135.513 36.0745 133.964 35.7839C132.462 35.4934 130.985 35.3481 129.533 35.3481C126.675 35.3481 124.327 35.9776 122.487 37.2367C120.695 38.4474 119.799 40.0697 119.799 42.1036C119.799 43.9923 120.501 45.5904 121.905 46.8979C123.31 48.157 125.102 48.7865 127.281 48.7865ZM60.7987 54.6704C58.9584 54.6704 57.2393 54.3798 55.6412 53.7987C54.0915 53.1692 52.7356 52.3217 51.5733 51.2563C50.4595 50.1909 49.5636 48.9318 48.8856 47.479C48.2561 46.0262 47.9413 44.4523 47.9413 42.7574C47.9413 40.9656 48.3287 39.3433 49.1036 37.8905C49.8784 36.4377 50.968 35.1786 52.3724 34.1132C53.8252 33.0478 55.5201 32.2245 57.4572 31.6434C59.4427 31.0623 61.6219 30.7717 63.9948 30.7717C65.7866 30.7717 67.5542 30.9412 69.2976 31.2802C71.041 31.5708 72.6148 31.9824 74.0192 32.5151V29.9C74.0192 27.0913 73.2202 24.9121 71.6221 23.3624C70.024 21.7643 67.7237 20.9653 64.7212 20.9653C62.6873 20.9653 60.6776 21.3527 58.6921 22.1275C56.755 22.8539 54.7453 23.9193 52.6629 25.3237L50.1932 20.2389C55.0843 16.9459 60.1691 15.2993 65.4476 15.2993C70.6778 15.2993 74.7456 16.6311 77.6512 19.2946C80.5568 21.958 82.0097 25.7838 82.0097 30.7717V44.5008C82.0097 46.1957 82.7118 47.0674 84.1162 47.1158V53.944C83.3414 54.0893 82.6634 54.1861 82.0823 54.2346C81.5496 54.283 81.0169 54.3072 80.4842 54.3072C78.9345 54.3072 77.7239 53.9198 76.8522 53.145C76.0289 52.3701 75.5204 51.3774 75.3267 50.1667L75.1088 47.7696C73.4139 49.9972 71.3073 51.7164 68.7891 52.927C66.3193 54.0893 63.6558 54.6704 60.7987 54.6704ZM62.9779 48.7865C64.915 48.7865 66.731 48.4476 68.4259 47.7696C70.1693 47.0432 71.5252 46.0504 72.4938 44.7913C73.5107 43.9196 74.0192 42.9995 74.0192 42.031V37.0188C72.6633 36.4861 71.2104 36.0745 69.6608 35.7839C68.1596 35.4934 66.6825 35.3481 65.2297 35.3481C62.3725 35.3481 60.0238 35.9776 58.1836 37.2367C56.3918 38.4474 55.4959 40.0697 55.4959 42.1036C55.4959 43.9923 56.1981 45.5904 57.6025 46.8979C59.0069 48.157 60.7987 48.7865 62.9779 48.7865ZM24.1892 43.7262L8.64421 2.39379H0L20.7025 53.9684H27.676L48.3059 2.39379H39.6616L24.1892 43.7262Z" fill="currentColor" style="fill:white;fill-opacity:1;"></path></svg>